<mxfile host="app.diagrams.net" modified="2023-06-23T04:50:35.527Z" agent="Mozilla/5.0 (Windows NT 10.0; Win64; x64) AppleWebKit/537.36 (KHTML, like Gecko) Chrome/114.0.0.0 Safari/537.36" etag="fk-YeSBUC2deUYAj6d_l" version="21.5.0" type="google">
  <diagram id="od8Rnb8N7IRgNO0WA-l_" name="ページ1">
    <mxGraphModel grid="1" page="1" gridSize="10" guides="1" tooltips="1" connect="1" arrows="1" fold="1" pageScale="1" pageWidth="827" pageHeight="1169" math="0" shadow="0">
      <root>
        <mxCell id="0" />
        <mxCell id="1" parent="0" />
        <mxCell id="ZyPTvoCAix8LyrcnwqbC-16" value="EKS Cluster" style="fillColor=none;strokeColor=#D05C17;dashed=1;verticalAlign=top;fontStyle=0;fontColor=#D05C17;" vertex="1" parent="1">
          <mxGeometry x="-440" y="440" width="840" height="440" as="geometry" />
        </mxCell>
        <mxCell id="XumjTPw2hBYQ-sRrh7FU-22" value="Node group for ScalarDL Ledger" style="fillColor=none;strokeColor=#5A6C86;dashed=1;verticalAlign=top;fontStyle=0;fontColor=#5A6C86;fontFamily=Helvetica;fontSize=12;" vertex="1" parent="1">
          <mxGeometry x="-320" y="520" width="680" height="120" as="geometry" />
        </mxCell>
        <mxCell id="2Oex8O3RDU0NnSTBvCjB-2" value="User applications (server, container etc.)" style="fillColor=none;strokeColor=#5A6C86;dashed=1;verticalAlign=top;fontStyle=0;fontColor=#5A6C86;fontFamily=Helvetica;fontSize=12;" vertex="1" parent="1">
          <mxGeometry x="-280" y="120" width="360" height="120" as="geometry" />
        </mxCell>
        <mxCell id="XumjTPw2hBYQ-sRrh7FU-17" value="EKS Cluster" style="fillColor=none;strokeColor=#D05C17;dashed=1;verticalAlign=top;fontStyle=0;fontColor=#D05C17;" vertex="1" parent="1">
          <mxGeometry x="-440" y="440" width="840" height="440" as="geometry" />
        </mxCell>
        <mxCell id="XumjTPw2hBYQ-sRrh7FU-14" value="AWS Cloud" style="points=[[0,0],[0.25,0],[0.5,0],[0.75,0],[1,0],[1,0.25],[1,0.5],[1,0.75],[1,1],[0.75,1],[0.5,1],[0.25,1],[0,1],[0,0.75],[0,0.5],[0,0.25]];outlineConnect=0;gradientColor=none;html=1;whiteSpace=wrap;fontSize=12;fontStyle=0;container=0;pointerEvents=0;collapsible=0;recursiveResize=0;shape=mxgraph.aws4.group;grIcon=mxgraph.aws4.group_aws_cloud;strokeColor=#232F3E;fillColor=none;verticalAlign=top;align=left;spacingLeft=30;fontColor=#232F3E;dashed=0;movable=1;resizable=1;rotatable=1;deletable=1;editable=1;locked=0;connectable=1;" vertex="1" parent="1">
          <mxGeometry x="-680" y="40" width="1480" height="1040" as="geometry" />
        </mxCell>
        <mxCell id="XumjTPw2hBYQ-sRrh7FU-15" value="VPC" style="points=[[0,0],[0.25,0],[0.5,0],[0.75,0],[1,0],[1,0.25],[1,0.5],[1,0.75],[1,1],[0.75,1],[0.5,1],[0.25,1],[0,1],[0,0.75],[0,0.5],[0,0.25]];outlineConnect=0;gradientColor=none;html=1;whiteSpace=wrap;fontSize=12;fontStyle=0;container=0;pointerEvents=0;collapsible=0;recursiveResize=0;shape=mxgraph.aws4.group;grIcon=mxgraph.aws4.group_vpc;strokeColor=#248814;fillColor=none;verticalAlign=top;align=left;spacingLeft=30;fontColor=#AAB7B8;dashed=0;" vertex="1" parent="1">
          <mxGeometry x="-640" y="80" width="1080" height="960" as="geometry" />
        </mxCell>
        <mxCell id="XumjTPw2hBYQ-sRrh7FU-35" style="edgeStyle=orthogonalEdgeStyle;rounded=0;orthogonalLoop=1;jettySize=auto;html=1;entryX=0;entryY=0.5;entryDx=0;entryDy=0;entryPerimeter=0;fontFamily=Helvetica;fontSize=12;fontColor=#D05C17;" edge="1" parent="1" source="XumjTPw2hBYQ-sRrh7FU-34" target="XumjTPw2hBYQ-sRrh7FU-30">
          <mxGeometry relative="1" as="geometry" />
        </mxCell>
        <mxCell id="eG7ZQN_vo8qLT-gt9y6S-61" style="edgeStyle=orthogonalEdgeStyle;rounded=0;orthogonalLoop=1;jettySize=auto;html=1;entryX=0;entryY=0.5;entryDx=0;entryDy=0;entryPerimeter=0;" edge="1" parent="1" source="XumjTPw2hBYQ-sRrh7FU-34" target="XumjTPw2hBYQ-sRrh7FU-16">
          <mxGeometry relative="1" as="geometry">
            <Array as="points">
              <mxPoint x="-720" y="580" />
              <mxPoint x="-720" y="480" />
            </Array>
          </mxGeometry>
        </mxCell>
        <mxCell id="XumjTPw2hBYQ-sRrh7FU-36" value="Managed databases" style="fillColor=none;strokeColor=#5A6C86;dashed=1;verticalAlign=top;fontStyle=0;fontColor=#5A6C86;fontFamily=Helvetica;fontSize=12;" vertex="1" parent="1">
          <mxGeometry x="600" y="320" width="160" height="560" as="geometry" />
        </mxCell>
        <mxCell id="XumjTPw2hBYQ-sRrh7FU-37" value="" style="sketch=0;points=[[0,0,0],[0.25,0,0],[0.5,0,0],[0.75,0,0],[1,0,0],[0,1,0],[0.25,1,0],[0.5,1,0],[0.75,1,0],[1,1,0],[0,0.25,0],[0,0.5,0],[0,0.75,0],[1,0.25,0],[1,0.5,0],[1,0.75,0]];outlineConnect=0;fontColor=#232F3E;gradientColor=#4D72F3;gradientDirection=north;fillColor=#3334B9;strokeColor=#ffffff;dashed=0;verticalLabelPosition=bottom;verticalAlign=top;align=center;html=1;fontSize=12;fontStyle=0;aspect=fixed;shape=mxgraph.aws4.resourceIcon;resIcon=mxgraph.aws4.dynamodb;fontFamily=Helvetica;" vertex="1" parent="1">
          <mxGeometry x="640" y="400" width="80" height="80" as="geometry" />
        </mxCell>
        <mxCell id="XumjTPw2hBYQ-sRrh7FU-38" value="" style="sketch=0;points=[[0,0,0],[0.25,0,0],[0.5,0,0],[0.75,0,0],[1,0,0],[0,1,0],[0.25,1,0],[0.5,1,0],[0.75,1,0],[1,1,0],[0,0.25,0],[0,0.5,0],[0,0.75,0],[1,0.25,0],[1,0.5,0],[1,0.75,0]];outlineConnect=0;fontColor=#232F3E;gradientColor=#4D72F3;gradientDirection=north;fillColor=#3334B9;strokeColor=#ffffff;dashed=0;verticalLabelPosition=bottom;verticalAlign=top;align=center;html=1;fontSize=12;fontStyle=0;aspect=fixed;shape=mxgraph.aws4.resourceIcon;resIcon=mxgraph.aws4.rds;fontFamily=Helvetica;" vertex="1" parent="1">
          <mxGeometry x="640" y="560" width="80" height="80" as="geometry" />
        </mxCell>
        <mxCell id="XumjTPw2hBYQ-sRrh7FU-39" value="" style="sketch=0;points=[[0,0,0],[0.25,0,0],[0.5,0,0],[0.75,0,0],[1,0,0],[0,1,0],[0.25,1,0],[0.5,1,0],[0.75,1,0],[1,1,0],[0,0.25,0],[0,0.5,0],[0,0.75,0],[1,0.25,0],[1,0.5,0],[1,0.75,0]];outlineConnect=0;fontColor=#232F3E;gradientColor=#4D72F3;gradientDirection=north;fillColor=#3334B9;strokeColor=#ffffff;dashed=0;verticalLabelPosition=bottom;verticalAlign=top;align=center;html=1;fontSize=12;fontStyle=0;aspect=fixed;shape=mxgraph.aws4.resourceIcon;resIcon=mxgraph.aws4.aurora;fontFamily=Helvetica;" vertex="1" parent="1">
          <mxGeometry x="640" y="720" width="80" height="80" as="geometry" />
        </mxCell>
        <mxCell id="eG7ZQN_vo8qLT-gt9y6S-23" style="edgeStyle=orthogonalEdgeStyle;rounded=0;orthogonalLoop=1;jettySize=auto;html=1;entryX=0;entryY=0.5;entryDx=0;entryDy=0;entryPerimeter=0;" edge="1" parent="1" source="ZyPTvoCAix8LyrcnwqbC-15" target="XumjTPw2hBYQ-sRrh7FU-37">
          <mxGeometry relative="1" as="geometry">
            <Array as="points">
              <mxPoint x="560" y="600" />
              <mxPoint x="560" y="440" />
            </Array>
            <mxPoint x="320" y="600.047619047619" as="sourcePoint" />
          </mxGeometry>
        </mxCell>
        <mxCell id="eG7ZQN_vo8qLT-gt9y6S-40" style="edgeStyle=orthogonalEdgeStyle;rounded=0;orthogonalLoop=1;jettySize=auto;html=1;" edge="1" parent="1" source="ZyPTvoCAix8LyrcnwqbC-15" target="XumjTPw2hBYQ-sRrh7FU-39">
          <mxGeometry relative="1" as="geometry">
            <Array as="points">
              <mxPoint x="560" y="600" />
              <mxPoint x="560" y="760" />
            </Array>
            <mxPoint x="320" y="600.047619047619" as="sourcePoint" />
          </mxGeometry>
        </mxCell>
        <mxCell id="eG7ZQN_vo8qLT-gt9y6S-41" style="edgeStyle=orthogonalEdgeStyle;rounded=0;orthogonalLoop=1;jettySize=auto;html=1;" edge="1" parent="1" source="ZyPTvoCAix8LyrcnwqbC-15" target="XumjTPw2hBYQ-sRrh7FU-38">
          <mxGeometry relative="1" as="geometry">
            <Array as="points" />
            <mxPoint x="320" y="600.047619047619" as="sourcePoint" />
          </mxGeometry>
        </mxCell>
        <mxCell id="XumjTPw2hBYQ-sRrh7FU-16" value="" style="sketch=0;points=[[0,0,0],[0.25,0,0],[0.5,0,0],[0.75,0,0],[1,0,0],[0,1,0],[0.25,1,0],[0.5,1,0],[0.75,1,0],[1,1,0],[0,0.25,0],[0,0.5,0],[0,0.75,0],[1,0.25,0],[1,0.5,0],[1,0.75,0]];outlineConnect=0;fontColor=#232F3E;gradientColor=#F78E04;gradientDirection=north;fillColor=#D05C17;strokeColor=#ffffff;dashed=0;verticalLabelPosition=bottom;verticalAlign=top;align=center;html=1;fontSize=12;fontStyle=0;aspect=fixed;shape=mxgraph.aws4.resourceIcon;resIcon=mxgraph.aws4.eks;" vertex="1" parent="1">
          <mxGeometry x="-440" y="440" width="80" height="80" as="geometry" />
        </mxCell>
        <mxCell id="eG7ZQN_vo8qLT-gt9y6S-33" style="edgeStyle=orthogonalEdgeStyle;rounded=0;orthogonalLoop=1;jettySize=auto;html=1;entryX=0.5;entryY=1;entryDx=0;entryDy=0;entryPerimeter=0;" edge="1" parent="1" source="XumjTPw2hBYQ-sRrh7FU-18" target="ZyPTvoCAix8LyrcnwqbC-11">
          <mxGeometry relative="1" as="geometry">
            <Array as="points">
              <mxPoint x="20" y="680" />
              <mxPoint x="-100" y="680" />
            </Array>
            <mxPoint x="-100" y="612.8413535886473" as="targetPoint" />
          </mxGeometry>
        </mxCell>
        <mxCell id="eG7ZQN_vo8qLT-gt9y6S-34" style="edgeStyle=orthogonalEdgeStyle;rounded=0;orthogonalLoop=1;jettySize=auto;html=1;entryX=0.5;entryY=1;entryDx=0;entryDy=0;entryPerimeter=0;" edge="1" parent="1" source="XumjTPw2hBYQ-sRrh7FU-18" target="ZyPTvoCAix8LyrcnwqbC-15">
          <mxGeometry relative="1" as="geometry">
            <Array as="points">
              <mxPoint x="20" y="680" />
              <mxPoint x="300" y="680" />
            </Array>
            <mxPoint x="300" y="612.8413535886473" as="targetPoint" />
          </mxGeometry>
        </mxCell>
        <mxCell id="eG7ZQN_vo8qLT-gt9y6S-68" style="edgeStyle=orthogonalEdgeStyle;rounded=0;orthogonalLoop=1;jettySize=auto;html=1;entryX=0.5;entryY=1;entryDx=0;entryDy=0;entryPerimeter=0;" edge="1" parent="1" source="XumjTPw2hBYQ-sRrh7FU-18" target="ZyPTvoCAix8LyrcnwqbC-13">
          <mxGeometry relative="1" as="geometry">
            <Array as="points">
              <mxPoint x="20" y="680" />
              <mxPoint x="-260" y="680" />
            </Array>
            <mxPoint x="-260" y="612.8413535886473" as="targetPoint" />
          </mxGeometry>
        </mxCell>
        <mxCell id="XumjTPw2hBYQ-sRrh7FU-18" value="Node group for monitoring components" style="fillColor=none;strokeColor=#5A6C86;dashed=1;verticalAlign=top;fontStyle=0;fontColor=#5A6C86;fontFamily=Helvetica;fontSize=12;" vertex="1" parent="1">
          <mxGeometry x="-320" y="720" width="680" height="120" as="geometry" />
        </mxCell>
        <mxCell id="XumjTPw2hBYQ-sRrh7FU-32" value="" style="edgeStyle=orthogonalEdgeStyle;rounded=0;orthogonalLoop=1;jettySize=auto;html=1;fontFamily=Helvetica;fontSize=12;fontColor=#D05C17;exitX=1;exitY=0.5;exitDx=0;exitDy=0;exitPerimeter=0;entryX=0;entryY=0.5;entryDx=0;entryDy=0;" edge="1" parent="1" source="XumjTPw2hBYQ-sRrh7FU-30" target="XumjTPw2hBYQ-sRrh7FU-18">
          <mxGeometry relative="1" as="geometry">
            <Array as="points">
              <mxPoint x="-480" y="580" />
              <mxPoint x="-480" y="780" />
            </Array>
          </mxGeometry>
        </mxCell>
        <mxCell id="XumjTPw2hBYQ-sRrh7FU-33" value="" style="edgeStyle=orthogonalEdgeStyle;rounded=0;orthogonalLoop=1;jettySize=auto;html=1;fontFamily=Helvetica;fontSize=12;fontColor=#D05C17;entryX=0;entryY=0.5;entryDx=0;entryDy=0;exitX=1;exitY=0.5;exitDx=0;exitDy=0;exitPerimeter=0;" edge="1" parent="1" source="XumjTPw2hBYQ-sRrh7FU-30" target="XumjTPw2hBYQ-sRrh7FU-22">
          <mxGeometry relative="1" as="geometry">
            <mxPoint x="-520" y="400" as="sourcePoint" />
            <Array as="points">
              <mxPoint x="-510" y="580" />
              <mxPoint x="-510" y="580" />
            </Array>
          </mxGeometry>
        </mxCell>
        <mxCell id="XumjTPw2hBYQ-sRrh7FU-30" value="" style="sketch=0;points=[[0,0,0],[0.25,0,0],[0.5,0,0],[0.75,0,0],[1,0,0],[0,1,0],[0.25,1,0],[0.5,1,0],[0.75,1,0],[1,1,0],[0,0.25,0],[0,0.5,0],[0,0.75,0],[1,0.25,0],[1,0.5,0],[1,0.75,0]];outlineConnect=0;fontColor=#232F3E;gradientColor=#F78E04;gradientDirection=north;fillColor=#D05C17;strokeColor=#ffffff;dashed=0;verticalLabelPosition=bottom;verticalAlign=top;align=center;html=1;fontSize=12;fontStyle=0;aspect=fixed;shape=mxgraph.aws4.resourceIcon;resIcon=mxgraph.aws4.ec2;fontFamily=Helvetica;" vertex="1" parent="1">
          <mxGeometry x="-600" y="540" width="80" height="80" as="geometry" />
        </mxCell>
        <mxCell id="eG7ZQN_vo8qLT-gt9y6S-24" style="edgeStyle=orthogonalEdgeStyle;rounded=0;orthogonalLoop=1;jettySize=auto;html=1;entryX=-0.008;entryY=0.486;entryDx=0;entryDy=0;entryPerimeter=0;" edge="1" parent="1" source="ZyPTvoCAix8LyrcnwqbC-11" target="ZyPTvoCAix8LyrcnwqbC-15">
          <mxGeometry relative="1" as="geometry">
            <mxPoint x="-80" y="600.0000000000001" as="sourcePoint" />
            <mxPoint x="280" y="600.047619047619" as="targetPoint" />
          </mxGeometry>
        </mxCell>
        <mxCell id="eG7ZQN_vo8qLT-gt9y6S-35" value="Monitoring" style="text;html=1;align=center;verticalAlign=middle;resizable=0;points=[];autosize=1;strokeColor=none;fillColor=none;" vertex="1" parent="1">
          <mxGeometry x="20" y="680" width="80" height="30" as="geometry" />
        </mxCell>
        <mxCell id="eG7ZQN_vo8qLT-gt9y6S-36" value="Bastion server" style="text;html=1;align=center;verticalAlign=middle;resizable=0;points=[];autosize=1;strokeColor=none;fillColor=none;" vertex="1" parent="1">
          <mxGeometry x="-610" y="619.9999999999999" width="100" height="30" as="geometry" />
        </mxCell>
        <mxCell id="eG7ZQN_vo8qLT-gt9y6S-38" value="Deploy &amp;amp; Manage" style="text;html=1;align=center;verticalAlign=middle;resizable=0;points=[];autosize=1;strokeColor=none;fillColor=none;" vertex="1" parent="1">
          <mxGeometry x="-440" y="580" width="120" height="30" as="geometry" />
        </mxCell>
        <mxCell id="eG7ZQN_vo8qLT-gt9y6S-45" style="edgeStyle=orthogonalEdgeStyle;rounded=0;orthogonalLoop=1;jettySize=auto;html=1;entryX=0.5;entryY=1;entryDx=0;entryDy=0;entryPerimeter=0;" edge="1" parent="1" source="eG7ZQN_vo8qLT-gt9y6S-44" target="ZyPTvoCAix8LyrcnwqbC-36">
          <mxGeometry relative="1" as="geometry">
            <mxPoint x="300" y="812.8413535886473" as="targetPoint" />
          </mxGeometry>
        </mxCell>
        <mxCell id="eG7ZQN_vo8qLT-gt9y6S-50" style="edgeStyle=orthogonalEdgeStyle;rounded=0;orthogonalLoop=1;jettySize=auto;html=1;entryX=0.5;entryY=1;entryDx=0;entryDy=0;entryPerimeter=0;" edge="1" parent="1" source="eG7ZQN_vo8qLT-gt9y6S-44" target="ZyPTvoCAix8LyrcnwqbC-35">
          <mxGeometry relative="1" as="geometry">
            <mxPoint x="220" y="812.8413535886473" as="targetPoint" />
          </mxGeometry>
        </mxCell>
        <mxCell id="eG7ZQN_vo8qLT-gt9y6S-44" value="" style="sketch=0;points=[[0,0,0],[0.25,0,0],[0.5,0,0],[0.75,0,0],[1,0,0],[0,1,0],[0.25,1,0],[0.5,1,0],[0.75,1,0],[1,1,0],[0,0.25,0],[0,0.5,0],[0,0.75,0],[1,0.25,0],[1,0.5,0],[1,0.75,0]];outlineConnect=0;fontColor=#232F3E;gradientColor=#F78E04;gradientDirection=north;fillColor=#D05C17;strokeColor=#ffffff;dashed=0;verticalLabelPosition=bottom;verticalAlign=top;align=center;html=1;fontSize=12;fontStyle=0;aspect=fixed;shape=mxgraph.aws4.resourceIcon;resIcon=mxgraph.aws4.elastic_load_balancing;" vertex="1" parent="1">
          <mxGeometry x="-440" y="920" width="80" height="80" as="geometry" />
        </mxCell>
        <mxCell id="eG7ZQN_vo8qLT-gt9y6S-49" value="Monitoring" style="text;html=1;align=center;verticalAlign=middle;resizable=0;points=[];autosize=1;strokeColor=none;fillColor=none;" vertex="1" parent="1">
          <mxGeometry x="-530" y="960" width="80" height="30" as="geometry" />
        </mxCell>
        <mxCell id="tqQFtVf9cBMd6XpxgD0x-11" style="edgeStyle=orthogonalEdgeStyle;rounded=0;orthogonalLoop=1;jettySize=auto;html=1;entryX=0;entryY=0.5;entryDx=0;entryDy=0;entryPerimeter=0;" edge="1" parent="1" source="XumjTPw2hBYQ-sRrh7FU-34" target="eG7ZQN_vo8qLT-gt9y6S-44">
          <mxGeometry relative="1" as="geometry">
            <Array as="points">
              <mxPoint x="-720" y="580" />
              <mxPoint x="-720" y="960" />
            </Array>
          </mxGeometry>
        </mxCell>
        <mxCell id="eG7ZQN_vo8qLT-gt9y6S-51" value="Administrator&lt;br&gt;for&lt;br&gt;ScalarDL" style="text;html=1;align=center;verticalAlign=middle;resizable=0;points=[];autosize=1;strokeColor=none;fillColor=none;" vertex="1" parent="1">
          <mxGeometry x="-845" y="620" width="90" height="60" as="geometry" />
        </mxCell>
        <mxCell id="tqQFtVf9cBMd6XpxgD0x-10" style="edgeStyle=orthogonalEdgeStyle;rounded=0;orthogonalLoop=1;jettySize=auto;html=1;" edge="1" parent="1" source="eG7ZQN_vo8qLT-gt9y6S-53" target="XumjTPw2hBYQ-sRrh7FU-17">
          <mxGeometry relative="1" as="geometry">
            <Array as="points">
              <mxPoint x="470" y="160" />
              <mxPoint x="470" y="360" />
              <mxPoint x="-20" y="360" />
            </Array>
          </mxGeometry>
        </mxCell>
        <mxCell id="eG7ZQN_vo8qLT-gt9y6S-53" value="" style="sketch=0;points=[[0,0,0],[0.25,0,0],[0.5,0,0],[0.75,0,0],[1,0,0],[0,1,0],[0.25,1,0],[0.5,1,0],[0.75,1,0],[1,1,0],[0,0.25,0],[0,0.5,0],[0,0.75,0],[1,0.25,0],[1,0.5,0],[1,0.75,0]];outlineConnect=0;fontColor=#232F3E;gradientColor=#F78E04;gradientDirection=north;fillColor=#D05C17;strokeColor=#ffffff;dashed=0;verticalLabelPosition=bottom;verticalAlign=top;align=center;html=1;fontSize=12;fontStyle=0;aspect=fixed;shape=mxgraph.aws4.resourceIcon;resIcon=mxgraph.aws4.ecr;" vertex="1" parent="1">
          <mxGeometry x="640" y="120" width="80" height="80" as="geometry" />
        </mxCell>
        <mxCell id="eG7ZQN_vo8qLT-gt9y6S-55" value="AWS Marketplace&lt;br&gt;Container Registry" style="text;html=1;align=center;verticalAlign=middle;resizable=0;points=[];autosize=1;strokeColor=none;fillColor=none;" vertex="1" parent="1">
          <mxGeometry x="620" y="200" width="120" height="40" as="geometry" />
        </mxCell>
        <mxCell id="eG7ZQN_vo8qLT-gt9y6S-57" value="Pull Scalar product images" style="text;html=1;align=center;verticalAlign=middle;resizable=0;points=[];autosize=1;strokeColor=none;fillColor=none;" vertex="1" parent="1">
          <mxGeometry x="470" y="160" width="170" height="30" as="geometry" />
        </mxCell>
        <mxCell id="eG7ZQN_vo8qLT-gt9y6S-59" value="Create EKS cluster" style="text;html=1;align=center;verticalAlign=middle;resizable=0;points=[];autosize=1;strokeColor=none;fillColor=none;" vertex="1" parent="1">
          <mxGeometry x="-570" y="480" width="130" height="30" as="geometry" />
        </mxCell>
        <mxCell id="eG7ZQN_vo8qLT-gt9y6S-69" value="DynamoDB" style="text;html=1;align=center;verticalAlign=middle;resizable=0;points=[];autosize=1;strokeColor=none;fillColor=none;" vertex="1" parent="1">
          <mxGeometry x="640" y="480" width="80" height="30" as="geometry" />
        </mxCell>
        <mxCell id="eG7ZQN_vo8qLT-gt9y6S-70" value="Amazon RDS" style="text;html=1;align=center;verticalAlign=middle;resizable=0;points=[];autosize=1;strokeColor=none;fillColor=none;" vertex="1" parent="1">
          <mxGeometry x="630" y="640" width="100" height="30" as="geometry" />
        </mxCell>
        <mxCell id="eG7ZQN_vo8qLT-gt9y6S-71" value="Amazon Aurora" style="text;html=1;align=center;verticalAlign=middle;resizable=0;points=[];autosize=1;strokeColor=none;fillColor=none;" vertex="1" parent="1">
          <mxGeometry x="625" y="800" width="110" height="30" as="geometry" />
        </mxCell>
        <mxCell id="eG7ZQN_vo8qLT-gt9y6S-73" value="Client requests via Scalar Envoy" style="text;html=1;align=center;verticalAlign=middle;resizable=0;points=[];autosize=1;strokeColor=none;fillColor=none;" vertex="1" parent="1">
          <mxGeometry x="-10" y="570" width="200" height="30" as="geometry" />
        </mxCell>
        <mxCell id="eG7ZQN_vo8qLT-gt9y6S-74" value="Read/Write&lt;br&gt;requests" style="text;html=1;align=center;verticalAlign=middle;resizable=0;points=[];autosize=1;strokeColor=none;fillColor=none;" vertex="1" parent="1">
          <mxGeometry x="460" y="559.9999999999999" width="80" height="40" as="geometry" />
        </mxCell>
        <mxCell id="tqQFtVf9cBMd6XpxgD0x-9" value="Client requests" style="text;html=1;align=center;verticalAlign=middle;resizable=0;points=[];autosize=1;strokeColor=none;fillColor=none;" vertex="1" parent="1">
          <mxGeometry x="-200" y="280" width="100" height="30" as="geometry" />
        </mxCell>
        <mxCell id="tqQFtVf9cBMd6XpxgD0x-13" value="Deploy &amp;amp; Manage" style="text;html=1;align=center;verticalAlign=middle;resizable=0;points=[];autosize=1;strokeColor=none;fillColor=none;" vertex="1" parent="1">
          <mxGeometry x="-440" y="780" width="120" height="30" as="geometry" />
        </mxCell>
        <mxCell id="XumjTPw2hBYQ-sRrh7FU-34" value="" style="sketch=0;outlineConnect=0;fontColor=#232F3E;gradientColor=none;fillColor=#232F3D;strokeColor=none;dashed=0;verticalLabelPosition=bottom;verticalAlign=top;align=center;html=1;fontSize=12;fontStyle=0;aspect=fixed;pointerEvents=1;shape=mxgraph.aws4.user;fontFamily=Helvetica;" vertex="1" parent="1">
          <mxGeometry x="-840" y="540" width="80" height="80" as="geometry" />
        </mxCell>
        <mxCell id="tqQFtVf9cBMd6XpxgD0x-21" value="Monitoring" style="text;html=1;align=center;verticalAlign=middle;resizable=0;points=[];autosize=1;strokeColor=none;fillColor=none;" vertex="1" parent="1">
          <mxGeometry x="220" y="960" width="80" height="30" as="geometry" />
        </mxCell>
        <mxCell id="Fg5_rdjPUznOXGDONwPo-2" style="edgeStyle=orthogonalEdgeStyle;rounded=0;orthogonalLoop=1;jettySize=auto;html=1;" edge="1" parent="1" source="ZyPTvoCAix8LyrcnwqbC-5" target="Fg5_rdjPUznOXGDONwPo-4">
          <mxGeometry relative="1" as="geometry">
            <Array as="points">
              <mxPoint x="-20" y="280" />
              <mxPoint x="-100" y="280" />
            </Array>
            <mxPoint x="-20" y="200" as="sourcePoint" />
          </mxGeometry>
        </mxCell>
        <mxCell id="Fg5_rdjPUznOXGDONwPo-1" style="edgeStyle=orthogonalEdgeStyle;rounded=0;orthogonalLoop=1;jettySize=auto;html=1;" edge="1" parent="1" source="ZyPTvoCAix8LyrcnwqbC-4" target="Fg5_rdjPUznOXGDONwPo-4">
          <mxGeometry relative="1" as="geometry">
            <mxPoint x="-100" y="199.92135358864726" as="sourcePoint" />
          </mxGeometry>
        </mxCell>
        <mxCell id="Fg5_rdjPUznOXGDONwPo-3" style="edgeStyle=orthogonalEdgeStyle;rounded=0;orthogonalLoop=1;jettySize=auto;html=1;" edge="1" parent="1" source="ZyPTvoCAix8LyrcnwqbC-3" target="Fg5_rdjPUznOXGDONwPo-4">
          <mxGeometry relative="1" as="geometry">
            <Array as="points">
              <mxPoint x="-180" y="280" />
              <mxPoint x="-100" y="280" />
            </Array>
            <mxPoint x="-180" y="199.92135358864726" as="sourcePoint" />
          </mxGeometry>
        </mxCell>
        <mxCell id="ZyPTvoCAix8LyrcnwqbC-10" style="edgeStyle=orthogonalEdgeStyle;rounded=0;orthogonalLoop=1;jettySize=auto;html=1;entryX=0.5;entryY=0;entryDx=0;entryDy=0;entryPerimeter=0;" edge="1" parent="1" source="Fg5_rdjPUznOXGDONwPo-4" target="ZyPTvoCAix8LyrcnwqbC-11">
          <mxGeometry relative="1" as="geometry">
            <mxPoint x="-100" y="580" as="targetPoint" />
          </mxGeometry>
        </mxCell>
        <mxCell id="Fg5_rdjPUznOXGDONwPo-4" value="" style="sketch=0;points=[[0,0,0],[0.25,0,0],[0.5,0,0],[0.75,0,0],[1,0,0],[0,1,0],[0.25,1,0],[0.5,1,0],[0.75,1,0],[1,1,0],[0,0.25,0],[0,0.5,0],[0,0.75,0],[1,0.25,0],[1,0.5,0],[1,0.75,0]];outlineConnect=0;fontColor=#232F3E;gradientColor=#F78E04;gradientDirection=north;fillColor=#D05C17;strokeColor=#ffffff;dashed=0;verticalLabelPosition=bottom;verticalAlign=top;align=center;html=1;fontSize=12;fontStyle=0;aspect=fixed;shape=mxgraph.aws4.resourceIcon;resIcon=mxgraph.aws4.elastic_load_balancing;" vertex="1" parent="1">
          <mxGeometry x="-140" y="320" width="80" height="80" as="geometry" />
        </mxCell>
        <mxCell id="Fg5_rdjPUznOXGDONwPo-6" value="Deploy &amp;amp; Manage" style="text;html=1;align=center;verticalAlign=middle;resizable=0;points=[];autosize=1;strokeColor=none;fillColor=none;" vertex="1" parent="1">
          <mxGeometry x="-440" y="180" width="120" height="30" as="geometry" />
        </mxCell>
        <mxCell id="cgRa2BNnDFC-4ionPuTA-4" style="edgeStyle=orthogonalEdgeStyle;rounded=0;orthogonalLoop=1;jettySize=auto;html=1;" edge="1" parent="1" source="cgRa2BNnDFC-4ionPuTA-1" target="2Oex8O3RDU0NnSTBvCjB-2">
          <mxGeometry relative="1" as="geometry" />
        </mxCell>
        <mxCell id="cgRa2BNnDFC-4ionPuTA-1" value="" style="sketch=0;outlineConnect=0;fontColor=#232F3E;gradientColor=none;fillColor=#232F3D;strokeColor=none;dashed=0;verticalLabelPosition=bottom;verticalAlign=top;align=center;html=1;fontSize=12;fontStyle=0;aspect=fixed;pointerEvents=1;shape=mxgraph.aws4.user;fontFamily=Helvetica;" vertex="1" parent="1">
          <mxGeometry x="-840" y="140" width="80" height="80" as="geometry" />
        </mxCell>
        <mxCell id="cgRa2BNnDFC-4ionPuTA-3" value="Administrator&lt;br&gt;for&lt;br&gt;Application" style="text;html=1;align=center;verticalAlign=middle;resizable=0;points=[];autosize=1;strokeColor=none;fillColor=none;" vertex="1" parent="1">
          <mxGeometry x="-845" y="220" width="90" height="60" as="geometry" />
        </mxCell>
        <mxCell id="ZyPTvoCAix8LyrcnwqbC-1" value="User app" style="text;html=1;align=center;verticalAlign=middle;resizable=0;points=[];autosize=1;strokeColor=none;fillColor=none;" vertex="1" parent="1">
          <mxGeometry x="-135" y="149.99999999999994" width="70" height="30" as="geometry" />
        </mxCell>
        <mxCell id="ZyPTvoCAix8LyrcnwqbC-2" value="User app" style="text;html=1;align=center;verticalAlign=middle;resizable=0;points=[];autosize=1;strokeColor=none;fillColor=none;" vertex="1" parent="1">
          <mxGeometry x="-215" y="149.99999999999994" width="70" height="30" as="geometry" />
        </mxCell>
        <mxCell id="ZyPTvoCAix8LyrcnwqbC-3" value="" style="sketch=0;html=1;dashed=0;whitespace=wrap;fillColor=#2875E2;strokeColor=#ffffff;points=[[0.005,0.63,0],[0.1,0.2,0],[0.9,0.2,0],[0.5,0,0],[0.995,0.63,0],[0.72,0.99,0],[0.5,1,0],[0.28,0.99,0]];verticalLabelPosition=bottom;align=center;verticalAlign=top;shape=mxgraph.kubernetes.icon;prIcon=pod" vertex="1" parent="1">
          <mxGeometry x="-200" y="180" width="40" height="40" as="geometry" />
        </mxCell>
        <mxCell id="ZyPTvoCAix8LyrcnwqbC-4" value="" style="sketch=0;html=1;dashed=0;whitespace=wrap;fillColor=#2875E2;strokeColor=#ffffff;points=[[0.005,0.63,0],[0.1,0.2,0],[0.9,0.2,0],[0.5,0,0],[0.995,0.63,0],[0.72,0.99,0],[0.5,1,0],[0.28,0.99,0]];verticalLabelPosition=bottom;align=center;verticalAlign=top;shape=mxgraph.kubernetes.icon;prIcon=pod" vertex="1" parent="1">
          <mxGeometry x="-120" y="180" width="40" height="40" as="geometry" />
        </mxCell>
        <mxCell id="ZyPTvoCAix8LyrcnwqbC-5" value="" style="sketch=0;html=1;dashed=0;whitespace=wrap;fillColor=#2875E2;strokeColor=#ffffff;points=[[0.005,0.63,0],[0.1,0.2,0],[0.9,0.2,0],[0.5,0,0],[0.995,0.63,0],[0.72,0.99,0],[0.5,1,0],[0.28,0.99,0]];verticalLabelPosition=bottom;align=center;verticalAlign=top;shape=mxgraph.kubernetes.icon;prIcon=pod" vertex="1" parent="1">
          <mxGeometry x="-40" y="180" width="40" height="40" as="geometry" />
        </mxCell>
        <mxCell id="ZyPTvoCAix8LyrcnwqbC-6" value="User app" style="text;html=1;align=center;verticalAlign=middle;resizable=0;points=[];autosize=1;strokeColor=none;fillColor=none;" vertex="1" parent="1">
          <mxGeometry x="-55" y="149.99999999999994" width="70" height="30" as="geometry" />
        </mxCell>
        <mxCell id="ZyPTvoCAix8LyrcnwqbC-8" value="Scalar Envoy" style="text;html=1;align=center;verticalAlign=middle;resizable=0;points=[];autosize=1;strokeColor=none;fillColor=none;" vertex="1" parent="1">
          <mxGeometry x="-190" y="550" width="90" height="30" as="geometry" />
        </mxCell>
        <mxCell id="ZyPTvoCAix8LyrcnwqbC-11" value="" style="sketch=0;html=1;dashed=0;whitespace=wrap;fillColor=#2875E2;strokeColor=#ffffff;points=[[0.005,0.63,0],[0.1,0.2,0],[0.9,0.2,0],[0.5,0,0],[0.995,0.63,0],[0.72,0.99,0],[0.5,1,0],[0.28,0.99,0]];verticalLabelPosition=bottom;align=center;verticalAlign=top;shape=mxgraph.kubernetes.icon;prIcon=pod" vertex="1" parent="1">
          <mxGeometry x="-120" y="580" width="40" height="40" as="geometry" />
        </mxCell>
        <mxCell id="ZyPTvoCAix8LyrcnwqbC-12" value="Promtail&lt;br&gt;(for monitoring)" style="text;html=1;align=center;verticalAlign=middle;resizable=0;points=[];autosize=1;strokeColor=none;fillColor=none;" vertex="1" parent="1">
          <mxGeometry x="-310" y="540" width="100" height="40" as="geometry" />
        </mxCell>
        <mxCell id="ZyPTvoCAix8LyrcnwqbC-13" value="" style="sketch=0;html=1;dashed=0;whitespace=wrap;fillColor=#2875E2;strokeColor=#ffffff;points=[[0.005,0.63,0],[0.1,0.2,0],[0.9,0.2,0],[0.5,0,0],[0.995,0.63,0],[0.72,0.99,0],[0.5,1,0],[0.28,0.99,0]];verticalLabelPosition=bottom;align=center;verticalAlign=top;shape=mxgraph.kubernetes.icon;prIcon=pod" vertex="1" parent="1">
          <mxGeometry x="-280" y="580" width="40" height="40" as="geometry" />
        </mxCell>
        <mxCell id="ZyPTvoCAix8LyrcnwqbC-14" value="ScalarDL Ledger" style="text;html=1;align=center;verticalAlign=middle;resizable=0;points=[];autosize=1;strokeColor=none;fillColor=none;" vertex="1" parent="1">
          <mxGeometry x="245" y="550" width="110" height="30" as="geometry" />
        </mxCell>
        <mxCell id="ZyPTvoCAix8LyrcnwqbC-15" value="" style="sketch=0;html=1;dashed=0;whitespace=wrap;fillColor=#2875E2;strokeColor=#ffffff;points=[[0.005,0.63,0],[0.1,0.2,0],[0.9,0.2,0],[0.5,0,0],[0.995,0.63,0],[0.72,0.99,0],[0.5,1,0],[0.28,0.99,0]];verticalLabelPosition=bottom;align=center;verticalAlign=top;shape=mxgraph.kubernetes.icon;prIcon=pod" vertex="1" parent="1">
          <mxGeometry x="280" y="580" width="40" height="40" as="geometry" />
        </mxCell>
        <mxCell id="ZyPTvoCAix8LyrcnwqbC-22" value="ScalarDL Ledger" style="text;html=1;align=center;verticalAlign=middle;resizable=0;points=[];autosize=1;strokeColor=none;fillColor=none;" vertex="1" parent="1">
          <mxGeometry x="245" y="550" width="110" height="30" as="geometry" />
        </mxCell>
        <mxCell id="ZyPTvoCAix8LyrcnwqbC-23" value="Prometheus&lt;br&gt;Operator" style="text;html=1;align=center;verticalAlign=middle;resizable=0;points=[];autosize=1;strokeColor=none;fillColor=none;" vertex="1" parent="1">
          <mxGeometry x="-225" y="740" width="90" height="40" as="geometry" />
        </mxCell>
        <mxCell id="ZyPTvoCAix8LyrcnwqbC-24" value="Prometheus" style="text;html=1;align=center;verticalAlign=middle;resizable=0;points=[];autosize=1;strokeColor=none;fillColor=none;" vertex="1" parent="1">
          <mxGeometry x="-145" y="750" width="90" height="30" as="geometry" />
        </mxCell>
        <mxCell id="ZyPTvoCAix8LyrcnwqbC-25" value="Grafana" style="text;html=1;align=center;verticalAlign=middle;resizable=0;points=[];autosize=1;strokeColor=none;fillColor=none;" vertex="1" parent="1">
          <mxGeometry x="185" y="750" width="70" height="30" as="geometry" />
        </mxCell>
        <mxCell id="ZyPTvoCAix8LyrcnwqbC-26" value="Scalar Manager" style="text;html=1;align=center;verticalAlign=middle;resizable=0;points=[];autosize=1;strokeColor=none;fillColor=none;" vertex="1" parent="1">
          <mxGeometry x="245" y="750" width="110" height="30" as="geometry" />
        </mxCell>
        <mxCell id="ZyPTvoCAix8LyrcnwqbC-27" value="Alertmanager" style="text;html=1;align=center;verticalAlign=middle;resizable=0;points=[];autosize=1;strokeColor=none;fillColor=none;" vertex="1" parent="1">
          <mxGeometry x="-70" y="750" width="100" height="30" as="geometry" />
        </mxCell>
        <mxCell id="ZyPTvoCAix8LyrcnwqbC-28" value="Loki" style="text;html=1;align=center;verticalAlign=middle;resizable=0;points=[];autosize=1;strokeColor=none;fillColor=none;" vertex="1" parent="1">
          <mxGeometry x="115" y="750" width="50" height="30" as="geometry" />
        </mxCell>
        <mxCell id="ZyPTvoCAix8LyrcnwqbC-29" value="Promtail" style="text;html=1;align=center;verticalAlign=middle;resizable=0;points=[];autosize=1;strokeColor=none;fillColor=none;" vertex="1" parent="1">
          <mxGeometry x="25" y="750" width="70" height="30" as="geometry" />
        </mxCell>
        <mxCell id="ZyPTvoCAix8LyrcnwqbC-30" value="" style="sketch=0;html=1;dashed=0;whitespace=wrap;fillColor=#2875E2;strokeColor=#ffffff;points=[[0.005,0.63,0],[0.1,0.2,0],[0.9,0.2,0],[0.5,0,0],[0.995,0.63,0],[0.72,0.99,0],[0.5,1,0],[0.28,0.99,0]];verticalLabelPosition=bottom;align=center;verticalAlign=top;shape=mxgraph.kubernetes.icon;prIcon=pod" vertex="1" parent="1">
          <mxGeometry x="-200" y="780" width="40" height="40" as="geometry" />
        </mxCell>
        <mxCell id="ZyPTvoCAix8LyrcnwqbC-31" value="" style="sketch=0;html=1;dashed=0;whitespace=wrap;fillColor=#2875E2;strokeColor=#ffffff;points=[[0.005,0.63,0],[0.1,0.2,0],[0.9,0.2,0],[0.5,0,0],[0.995,0.63,0],[0.72,0.99,0],[0.5,1,0],[0.28,0.99,0]];verticalLabelPosition=bottom;align=center;verticalAlign=top;shape=mxgraph.kubernetes.icon;prIcon=pod" vertex="1" parent="1">
          <mxGeometry x="-120" y="780" width="40" height="40" as="geometry" />
        </mxCell>
        <mxCell id="ZyPTvoCAix8LyrcnwqbC-32" value="" style="sketch=0;html=1;dashed=0;whitespace=wrap;fillColor=#2875E2;strokeColor=#ffffff;points=[[0.005,0.63,0],[0.1,0.2,0],[0.9,0.2,0],[0.5,0,0],[0.995,0.63,0],[0.72,0.99,0],[0.5,1,0],[0.28,0.99,0]];verticalLabelPosition=bottom;align=center;verticalAlign=top;shape=mxgraph.kubernetes.icon;prIcon=pod" vertex="1" parent="1">
          <mxGeometry x="-40" y="780" width="40" height="40" as="geometry" />
        </mxCell>
        <mxCell id="ZyPTvoCAix8LyrcnwqbC-33" value="" style="sketch=0;html=1;dashed=0;whitespace=wrap;fillColor=#2875E2;strokeColor=#ffffff;points=[[0.005,0.63,0],[0.1,0.2,0],[0.9,0.2,0],[0.5,0,0],[0.995,0.63,0],[0.72,0.99,0],[0.5,1,0],[0.28,0.99,0]];verticalLabelPosition=bottom;align=center;verticalAlign=top;shape=mxgraph.kubernetes.icon;prIcon=pod" vertex="1" parent="1">
          <mxGeometry x="40" y="780" width="40" height="40" as="geometry" />
        </mxCell>
        <mxCell id="ZyPTvoCAix8LyrcnwqbC-34" value="" style="sketch=0;html=1;dashed=0;whitespace=wrap;fillColor=#2875E2;strokeColor=#ffffff;points=[[0.005,0.63,0],[0.1,0.2,0],[0.9,0.2,0],[0.5,0,0],[0.995,0.63,0],[0.72,0.99,0],[0.5,1,0],[0.28,0.99,0]];verticalLabelPosition=bottom;align=center;verticalAlign=top;shape=mxgraph.kubernetes.icon;prIcon=pod" vertex="1" parent="1">
          <mxGeometry x="120" y="780" width="40" height="40" as="geometry" />
        </mxCell>
        <mxCell id="ZyPTvoCAix8LyrcnwqbC-35" value="" style="sketch=0;html=1;dashed=0;whitespace=wrap;fillColor=#2875E2;strokeColor=#ffffff;points=[[0.005,0.63,0],[0.1,0.2,0],[0.9,0.2,0],[0.5,0,0],[0.995,0.63,0],[0.72,0.99,0],[0.5,1,0],[0.28,0.99,0]];verticalLabelPosition=bottom;align=center;verticalAlign=top;shape=mxgraph.kubernetes.icon;prIcon=pod" vertex="1" parent="1">
          <mxGeometry x="200" y="780" width="40" height="40" as="geometry" />
        </mxCell>
        <mxCell id="ZyPTvoCAix8LyrcnwqbC-36" value="" style="sketch=0;html=1;dashed=0;whitespace=wrap;fillColor=#2875E2;strokeColor=#ffffff;points=[[0.005,0.63,0],[0.1,0.2,0],[0.9,0.2,0],[0.5,0,0],[0.995,0.63,0],[0.72,0.99,0],[0.5,1,0],[0.28,0.99,0]];verticalLabelPosition=bottom;align=center;verticalAlign=top;shape=mxgraph.kubernetes.icon;prIcon=pod" vertex="1" parent="1">
          <mxGeometry x="280" y="780" width="40" height="40" as="geometry" />
        </mxCell>
        <mxCell id="ZyPTvoCAix8LyrcnwqbC-37" value="" style="sketch=0;html=1;dashed=0;whitespace=wrap;fillColor=#2875E2;strokeColor=#ffffff;points=[[0.005,0.63,0],[0.1,0.2,0],[0.9,0.2,0],[0.5,0,0],[0.995,0.63,0],[0.72,0.99,0],[0.5,1,0],[0.28,0.99,0]];verticalLabelPosition=bottom;align=center;verticalAlign=top;shape=mxgraph.kubernetes.icon;prIcon=pod" vertex="1" parent="1">
          <mxGeometry x="280" y="580" width="40" height="40" as="geometry" />
        </mxCell>
      </root>
    </mxGraphModel>
  </diagram>
</mxfile>
